<?xml version="1.0" encoding="UTF-8"?>
<!DOCTYPE svg PUBLIC "-//W3C//DTD SVG 1.1//EN" "http://www.w3.org/Graphics/SVG/1.1/DTD/svg11.dtd">
<svg xmlns="http://www.w3.org/2000/svg" version="1.1" width="482px" height="257px" style="shape-rendering:geometricPrecision; text-rendering:geometricPrecision; image-rendering:optimizeQuality; fill-rule:evenodd; clip-rule:evenodd" xmlns:xlink="http://www.w3.org/1999/xlink">
<g><path style="opacity:0.957" fill="#fefffe" d="M 206.5,14.5 C 209.564,14.1437 212.231,14.9771 214.5,17C 231.221,33.7208 247.887,50.3874 264.5,67C 273.918,69.0211 283.251,71.3544 292.5,74C 299.232,79.5285 301.066,86.3618 298,94.5C 297.097,95.7014 295.931,96.5348 294.5,97C 278.833,97.6667 263.167,97.6667 247.5,97C 245.998,96.4169 244.665,95.5836 243.5,94.5C 233.53,72.0062 216.197,60.1729 191.5,59C 190.282,57.5618 189.615,55.8951 189.5,54C 190.627,38.7561 196.294,25.5894 206.5,14.5 Z"/></g>
<g><path style="opacity:0.915" fill="#fefffe" d="M 190.5,66.5 C 198.122,66.3257 205.455,67.659 212.5,70.5C 213.63,77.4495 213.797,84.4495 213,91.5C 212.293,93.0806 211.46,94.5806 210.5,96C 194.776,101.435 187.776,95.9351 189.5,79.5C 189.562,75.1175 189.895,70.7842 190.5,66.5 Z"/></g>
<g><path style="opacity:0.919" fill="#fefffe" d="M 216.5,124.5 C 224.211,122.431 229.378,125.098 232,132.5C 234.334,148.169 232,163.169 225,177.5C 220.131,187.686 214.464,197.353 208,206.5C 207.053,213.885 210.22,216.719 217.5,215C 220.916,213.75 223.583,211.583 225.5,208.5C 224.335,203.001 225.669,198.167 229.5,194C 239.828,192.677 243.161,197.01 239.5,207C 240.408,210.243 242.408,212.577 245.5,214C 255.122,217.544 264.455,216.877 273.5,212C 277.07,208.311 277.904,204.144 276,199.5C 273.795,196.96 271.295,194.793 268.5,193C 260.717,189.942 253.05,186.608 245.5,183C 231.743,173.467 228.909,161.3 237,146.5C 242.043,140.228 248.543,136.394 256.5,135C 264.897,134.13 273.23,134.463 281.5,136C 296.443,142.058 300.776,152.558 294.5,167.5C 290.927,171.02 287.094,171.354 283,168.5C 281.269,164.371 281.102,160.204 282.5,156C 279.483,149.243 274.15,146.076 266.5,146.5C 261.983,147.029 257.65,148.196 253.5,150C 246.845,156.292 246.845,162.625 253.5,169C 263.956,173.728 274.289,178.728 284.5,184C 294.079,193.651 295.579,204.484 289,216.5C 283.727,223.054 276.894,226.888 268.5,228C 258.347,229.125 248.347,228.458 238.5,226C 235.397,224.561 232.564,222.727 230,220.5C 222.257,228.461 213.091,230.628 202.5,227C 199.567,224.736 197.4,221.902 196,218.5C 190.958,226.437 183.791,229.604 174.5,228C 171.527,226.235 169.36,223.735 168,220.5C 163.464,227.844 156.964,230.344 148.5,228C 145.764,226.638 143.431,224.804 141.5,222.5C 132.635,228.158 122.969,229.991 112.5,228C 108.806,226.802 105.472,224.968 102.5,222.5C 95.1146,228.173 86.7812,230.006 77.5,228C 73.7587,226.262 70.592,223.762 68,220.5C 64,213.167 60,205.833 56,198.5C 54.5867,196.586 52.7534,195.253 50.5,194.5C 48.2133,204.219 45.7133,213.885 43,223.5C 41.4571,225.378 39.6238,226.878 37.5,228C 27.4036,230.524 19.2369,227.691 13,219.5C 4.75599,201.047 4.42266,182.38 12,163.5C 24.4821,138.847 44.3154,129.68 71.5,136C 85.4559,141.402 90.9559,151.569 88,166.5C 84.5262,177.974 77.0262,185.474 65.5,189C 68.5616,190.061 71.0616,191.894 73,194.5C 75.7822,201.9 79.9489,208.4 85.5,214C 89.8288,215.151 93.6621,214.318 97,211.5C 94.8899,195.759 100.723,184.259 114.5,177C 129.579,173.427 136.746,179.26 136,194.5C 134.771,199.8 131.938,203.967 127.5,207C 123.065,209.551 118.399,211.551 113.5,213C 118.693,217.765 124.359,218.432 130.5,215C 133.603,213.561 136.436,211.727 139,209.5C 139.796,195.39 146.296,184.89 158.5,178C 162.741,176.543 167.074,176.209 171.5,177C 172.211,178.255 173.044,179.421 174,180.5C 177.481,178.996 180.481,179.663 183,182.5C 181.623,193.442 180.456,204.442 179.5,215.5C 185.147,214.704 189.314,211.704 192,206.5C 190.661,180.872 195.661,156.539 207,133.5C 209.406,129.592 212.572,126.592 216.5,124.5 Z M 217.5,136.5 C 218.822,136.33 219.989,136.663 221,137.5C 221.662,156.193 216.996,173.526 207,189.5C 206.974,171.128 210.474,153.461 217.5,136.5 Z M 51.5,146.5 C 70.2728,147.378 75.7728,156.378 68,173.5C 63.7469,178.879 58.2469,181.379 51.5,181C 53.8021,173.346 54.6354,165.513 54,157.5C 49.9336,154.935 45.7669,154.935 41.5,157.5C 40.4164,158.665 39.5831,159.998 39,161.5C 37.7234,168.16 36.5567,174.827 35.5,181.5C 28.6306,181.538 26.1306,184.871 28,191.5C 29.4443,193.155 31.2776,193.822 33.5,193.5C 32.6426,200.647 31.1426,207.647 29,214.5C 27.8869,215.711 26.7202,215.711 25.5,214.5C 20.6265,207.844 18.6265,200.344 19.5,192C 18.611,176.657 23.611,163.657 34.5,153C 39.8487,149.722 45.5153,147.555 51.5,146.5 Z M 118.5,187.5 C 123.151,188.174 124.651,190.841 123,195.5C 120.149,199.506 116.315,201.84 111.5,202.5C 111.445,196.282 113.778,191.282 118.5,187.5 Z M 166.5,187.5 C 167.649,187.791 168.316,188.624 168.5,190C 167.374,196.922 165.874,203.755 164,210.5C 162.931,215.257 160.098,217.091 155.5,216C 151.978,203.732 155.645,194.232 166.5,187.5 Z"/></g>
<g><path style="opacity:0.92" fill="#fefffe" d="M 481.5,206.5 C 481.5,210.833 481.5,215.167 481.5,219.5C 472.871,228.462 462.537,230.962 450.5,227C 448.667,225.833 446.833,224.667 445,223.5C 442.393,219.94 440.06,216.274 438,212.5C 432.548,214.318 427.715,213.318 423.5,209.5C 422.007,204.644 421.007,199.644 420.5,194.5C 418.541,195.748 417.041,197.415 416,199.5C 411.55,207.733 408.217,216.4 406,225.5C 405.5,226.667 404.667,227.5 403.5,228C 398.367,229.794 394.867,228.294 393,223.5C 392.07,218.201 391.403,212.867 391,207.5C 388.931,208.264 386.764,208.764 384.5,209C 379.016,226.409 367.682,232.076 350.5,226C 348.983,224.315 347.316,222.815 345.5,221.5C 335.555,229.396 324.888,230.562 313.5,225C 308.085,219.667 305.252,213.167 305,205.5C 304.501,199.509 304.334,193.509 304.5,187.5C 296.328,189.495 293.494,186.495 296,178.5C 296.5,177.333 297.333,176.5 298.5,176C 301.146,175.503 303.813,175.336 306.5,175.5C 308.033,160.721 313.366,147.554 322.5,136C 334.999,128.453 341.999,131.953 343.5,146.5C 342.915,157.775 338.581,167.275 330.5,175C 334.951,175.13 339.284,175.796 343.5,177C 345.251,181.506 343.917,184.84 339.5,187C 332.508,187.5 325.508,187.666 318.5,187.5C 318.105,195.313 318.939,202.98 321,210.5C 322.664,214.084 325.497,215.751 329.5,215.5C 340.54,213.926 344.706,207.593 342,196.5C 347.511,178.626 359.011,172.792 376.5,179C 381.717,183.266 384.383,188.766 384.5,195.5C 387.247,195.813 389.914,195.48 392.5,194.5C 393.508,190.134 394.675,185.8 396,181.5C 396.785,179.714 397.951,178.214 399.5,177C 402.817,176.502 406.15,176.335 409.5,176.5C 408.813,183.561 407.979,190.561 407,197.5C 409.899,190.216 414.399,184.049 420.5,179C 424.894,176.626 429.56,175.959 434.5,177C 435.991,179.097 436.991,181.43 437.5,184C 436.141,189.039 435.474,194.205 435.5,199.5C 436.833,199.5 438.167,199.5 439.5,199.5C 443.406,180.055 454.739,173.222 473.5,179C 480.335,189.342 479.002,198.675 469.5,207C 464.841,209.271 460.174,211.437 455.5,213.5C 459.684,218.079 464.351,218.579 469.5,215C 472.167,212.333 474.833,209.667 477.5,207C 478.793,206.51 480.127,206.343 481.5,206.5 Z M 329.5,143.5 C 330.117,143.611 330.617,143.944 331,144.5C 332.208,155.425 328.874,164.758 321,172.5C 321.507,162.135 324.341,152.468 329.5,143.5 Z M 460.5,187.5 C 464.976,187.822 466.476,190.156 465,194.5C 462.295,199.19 458.295,202.19 453,203.5C 452.726,196.804 455.226,191.47 460.5,187.5 Z M 362.5,188.5 C 364.401,191.343 365.567,194.676 366,198.5C 367.455,201.613 369.288,204.446 371.5,207C 370.432,211.735 367.599,214.902 363,216.5C 357.597,214.21 355.097,210.043 355.5,204C 355.317,197.543 357.651,192.376 362.5,188.5 Z"/></g>
</svg>
